<svg width="230" height="39" viewBox="0 0 230 39" fill="none" xmlns="http://www.w3.org/2000/svg">
<g id="Item">
<g id="slack">
<g id="Group-4">
<path id="Fill-1" d="M72.2388 3.96224C71.709 2.22652 69.8549 1.2919 68.1332 1.82596C66.4115 2.36003 65.4845 4.22927 66.0142 5.965L74.4902 32.2679C75.0862 33.8701 76.8079 34.8047 78.4634 34.3374C80.1851 33.8033 81.2446 32.0009 80.7148 30.2651C80.7148 30.1984 72.2388 3.96224 72.2388 3.96224Z" fill="#AEC0CE"/>
<path id="Fill-3" d="M59.1275 8.3016C58.5977 6.56587 56.7436 5.63125 55.0219 6.16532C53.3002 6.69939 52.3731 8.56863 52.9029 10.3044L61.3789 36.6073C61.9749 38.2095 63.6966 39.1441 65.352 38.6768C67.0737 38.1427 68.1332 36.3402 67.6035 34.6045C67.6035 34.5377 59.1275 8.3016 59.1275 8.3016Z" fill="#AEC0CE"/>
</g>
<path id="Fill-5" d="M82.9663 25.7922C84.688 25.2581 85.6151 23.3889 85.0853 21.6532C84.5556 19.9174 82.7014 18.9828 80.9798 19.5169L54.8233 27.9952C53.234 28.5961 52.307 30.3318 52.7705 32.0007C53.3002 33.7365 55.0882 34.8046 56.8099 34.2705C56.9423 34.2705 82.9663 25.7922 82.9663 25.7922Z" fill="#AEC0CE"/>
<path id="Fill-6" d="M60.2532 33.2025C61.9749 32.6684 64.1601 31.9341 66.4778 31.133C65.9481 29.3973 65.2196 27.1942 64.425 24.8577L58.2004 26.9272L60.2532 33.2025Z" fill="#AEC0CE"/>
<g id="Group-10">
<path id="Fill-7" d="M73.4307 28.8631C75.8146 28.062 77.9998 27.3944 79.6553 26.7936C79.1255 25.0579 78.3971 22.8549 77.6025 20.5183L71.3779 22.5878L73.4307 28.8631Z" fill="#AEC0CE"/>
<path id="Fill-9" d="M78.6621 12.5073C80.3838 11.9732 81.3108 10.104 80.7811 8.36825C80.2513 6.63252 78.3972 5.6979 76.6755 6.23197L50.5852 14.7771C48.996 15.3779 48.0689 17.1136 48.5325 18.7826C49.0622 20.5851 50.8501 21.6532 52.5718 21.0524C52.638 21.0524 78.6621 12.5073 78.6621 12.5073Z" fill="#AEC0CE"/>
</g>
<path id="Fill-11" d="M56.0152 19.9176C57.7369 19.3835 59.9221 18.6492 62.2398 17.8481C61.4451 15.4448 60.7829 13.2417 60.187 11.5728L53.9624 13.6423L56.0152 19.9176Z" fill="#AEC0CE"/>
<path id="Fill-12" d="M69.1265 15.6449C71.5104 14.8438 73.6956 14.1762 75.3511 13.5754C74.5565 11.172 73.8943 8.96901 73.2983 7.30005L67.0737 9.36957L69.1265 15.6449Z" fill="#AEC0CE"/>
<path id="Fill-13" d="M109.388 10.9052C110.513 11.4392 110.646 11.773 109.719 13.5087C108.792 15.3112 108.593 15.378 107.401 14.9107C105.944 14.3098 104.156 13.8425 102.964 13.8425C101.044 13.8425 99.7859 14.5101 99.7859 15.5783C99.7859 19.0497 110.844 17.1805 110.844 24.6574C110.844 28.3959 107.666 30.866 102.898 30.866C100.382 30.866 97.2696 29.9981 95.1506 28.93C94.0911 28.3959 94.0249 28.0621 94.9519 26.2596C95.7466 24.7242 96.0114 24.5239 97.1371 24.9912C98.9913 25.7923 101.243 26.3932 102.832 26.3932C104.62 26.3932 105.746 25.6588 105.746 24.5907C105.746 21.186 94.4884 22.7882 94.4884 15.5783C94.4884 11.773 97.6669 9.16943 102.368 9.16943C104.62 9.36971 107.467 10.0373 109.388 10.9052Z" fill="#AEC0CE"/>
<path id="Fill-14" d="M118.327 2.09292V29.8645C118.327 30.2651 117.864 30.7324 117.268 30.7324H114.354C113.692 30.7324 113.295 30.2651 113.295 29.8645V2.09292C113.295 0.690991 113.692 0.624232 115.811 0.624232C118.195 0.557473 118.327 0.757749 118.327 2.09292Z" fill="#AEC0CE"/>
<path id="Fill-15" fill-rule="evenodd" clip-rule="evenodd" d="M138.855 29.5975V17.6477C138.855 12.4405 135.345 9.36963 129.783 9.36963C127.267 9.36963 124.486 10.1707 122.499 11.5059C121.439 12.1735 121.439 12.5073 122.499 14.1762C123.625 15.8452 123.823 15.912 124.883 15.3111C126.207 14.51 127.863 13.976 129.253 13.976C132.167 13.976 133.889 15.3111 133.889 17.5142V18.9161C132.498 18.3153 130.776 17.9815 128.922 17.9815C123.956 17.9815 120.711 20.6518 120.711 24.6574C120.711 28.3958 123.625 30.9327 127.929 30.9327C130.18 30.9327 132.432 29.998 133.955 28.2623L133.889 29.5307C133.822 30.1983 134.286 30.6656 134.948 30.6656H137.796C138.392 30.6656 138.855 30.2651 138.855 29.5975ZM128.525 26.9271C126.737 26.9271 125.545 25.9925 125.545 24.5906C125.545 22.8549 127.333 21.5197 129.982 21.5197C131.24 21.5197 132.697 21.72 133.822 22.1873V24.0565C132.697 25.859 130.71 26.9271 128.525 26.9271Z" fill="#AEC0CE"/>
<g id="Group-19">
<path id="Fill-16" d="M158.522 10.9719C159.582 11.5728 159.582 11.9066 158.456 13.709C157.396 15.378 157.198 15.5115 156.006 14.9107C155.145 14.4434 153.688 14.0428 152.562 14.0428C148.92 14.0428 146.536 16.4461 146.536 20.1179C146.536 23.9231 148.92 26.4599 152.562 26.4599C153.82 26.4599 155.41 25.9926 156.403 25.3918C157.463 24.791 157.661 24.791 158.787 26.4599C159.78 27.9954 159.78 28.3292 158.853 28.9968C157.264 30.1317 154.681 30.9995 152.43 30.9995C145.742 30.9995 141.239 26.6602 141.239 20.1846C141.239 13.709 145.742 9.43648 152.496 9.43648C154.615 9.36972 156.999 10.0373 158.522 10.9719Z" fill="#AEC0CE"/>
<path id="Fill-18" d="M180.44 28.0621C181.301 29.1302 180.97 29.5308 178.851 30.2651C176.732 31.0662 176.401 30.9994 175.673 29.9981L169.647 21.9203L166.932 24.5239V29.7978C166.932 30.1983 166.468 30.6656 165.872 30.6656H162.959C162.296 30.6656 161.899 30.1983 161.899 29.7978V2.09296C161.899 0.691026 162.296 0.624268 164.415 0.624268C166.866 0.624268 166.932 0.824543 166.932 2.09296V17.848L175.143 9.90372C176.07 9.03585 176.534 9.10261 178.189 10.1708C179.977 11.3056 180.109 11.6394 179.249 12.5073L173.156 18.5156L180.44 28.0621Z" fill="#AEC0CE"/>
</g>
</g>
</g>
</svg>
