<svg width="230" height="39" viewBox="0 0 230 39" fill="none" xmlns="http://www.w3.org/2000/svg">
<path fill-rule="evenodd" clip-rule="evenodd" d="M69.8895 33.1833L69.8895 33.1833L69.8894 33.1833C69.2208 33.2519 68.5421 33.3214 67.8472 33.407L62.2715 17.2766V34.0934C60.5291 34.265 58.9609 34.4938 57.2766 34.7798V3.94897H61.923L68.2537 21.4522V3.94897H73.1905V32.7778C72.0997 32.9568 71.009 33.0686 69.8897 33.1833L69.8896 33.1833L69.8896 33.1833L69.8895 33.1833ZM86.2632 15.2153H86.2632L86.2633 15.2153C87.4173 15.1874 88.5444 15.1602 89.3949 15.1602V19.965C87.2459 19.965 84.6904 19.965 82.8318 20.0794V27.2294C83.7369 27.1748 84.6478 27.1144 85.5628 27.0538L85.5629 27.0538L85.5631 27.0538H85.5632H85.5632H85.5632H85.5632C87.5251 26.9238 89.5054 26.7926 91.4857 26.7146V31.3478L77.9531 32.3774V3.94897H91.4857V8.75377H82.8318V15.2746C83.8129 15.2746 85.0527 15.2446 86.263 15.2153H86.2631H86.2631H86.2632H86.2632ZM104.554 8.81097H109.607C109.607 8.81097 109.607 3.94897 109.665 3.94897H94.6221V8.81097H99.675V31.0046C101.243 30.9474 102.927 30.9474 104.554 30.9474V8.81097ZM117.564 14.9314H124.243V19.7362H117.564V30.6614H112.743V3.94897H126.392V8.75377H117.564V14.9314ZM139.414 26.6585C137.734 26.5613 136.041 26.4633 134.349 26.4286V3.94897H129.47V30.9474C133.942 31.0618 138.298 31.2906 142.654 31.5766V26.829C141.582 26.784 140.5 26.7214 139.414 26.6585ZM148.426 32.0252L148.427 32.0252C149.473 32.0876 150.536 32.1508 151.599 32.263V3.94897H146.778V31.9198C147.321 31.9594 147.871 31.9922 148.426 32.0252ZM166.757 18.5922L172.972 3.94897H167.571L164.144 12.0142L160.949 3.94897H155.722L161.414 18.4206L155.141 32.4918C155.838 32.5833 156.535 32.6565 157.232 32.7297C158.278 32.8396 159.323 32.9494 160.369 33.121L163.97 24.9414L167.454 33.8646C168.105 33.9647 168.749 34.0719 169.391 34.1787C170.581 34.3769 171.764 34.5739 172.972 34.7226L166.757 18.5922Z" fill="#AEC0CE"/>
</svg>
